<?xml version="1.0" encoding="UTF-8"?>
<svg xmlns="http://www.w3.org/2000/svg" width="100" height="100">
  <path fill="#f3d55e" d="M20.283 19.666a15 15 0 0 0-14.887 15 15 15 0 0 0 15 15 15 15 0 0 0 15-15 15 15 0 0 0-15-15 15 15 0 0 0-.113 0zm59.045 0a15 15 0 0 0-14.887 15 15 15 0 0 0 15 15 15 15 0 0 0 15-15 15 15 0 0 0-15-15 15 15 0 0 0-.113 0z" />
  <path fill="#fff" d="M48.59 273.782c-8.74.097-14.65 6.534-16.112 10.218-1.671 4.21-2.715 8.819-.508 14.322 2.206 5.504 5.627 7.45 5.627 7.45s-6.121 7.485-3.099 17.983c3.023 10.498 25.145 14.583 28.938 15.196 5.455.88 14.558 1.187 14.76 1.194h.036c.202-.007 9.305-.313 14.76-1.194 3.793-.613 25.915-4.698 28.938-15.196 3.022-10.498-3.1-17.984-3.1-17.984s3.422-1.945 5.628-7.449c2.207-5.503 1.163-10.112-.508-14.322-1.462-3.684-7.372-10.12-16.113-10.218a18.877 18.877 0 0 0-3.914.373c-10.875 2.171-13.648 12.382-13.648 12.382s-.555-.273-4.337-.984c-3.735-.701-7.627-.598-7.724-.595-.101-.003-3.99-.106-7.724.595-3.782.71-4.337.984-4.337.984s-2.773-10.21-13.648-12.382a18.884 18.884 0 0 0-3.914-.373zm-.199 6.36c.085 0 .17 0 .257.002 3.625.384 6.541 1.398 9.076 4.684 2.578 3.34 2.903 5.84-.094 9.97-2.709 3.32-4.333 4.55-8.328 6.65-5.354 2.592-8.291.24-10.424-2.695-2.529-3.48-2.602-7.622-1.654-10.645 1.741-4.292 5.803-7.95 11.167-7.966zm59.646 0c5.364.015 9.426 3.674 11.167 7.966.948 3.023.875 7.164-1.654 10.645-2.133 2.935-5.07 5.287-10.424 2.696-3.995-2.1-5.62-3.33-8.328-6.65-2.997-4.131-2.672-6.63-.095-9.971 2.536-3.286 5.452-4.3 9.077-4.684.086-.002.172-.002.257-.002z" transform="translate(-28.244 -256.981)" />
</svg>